<svg width="56" height="56" viewBox="0 0 56 56" fill="none" xmlns="http://www.w3.org/2000/svg">
<path d="M27.9987 13.9999C30.5654 13.9999 32.6654 16.0999 32.6654 18.6666C32.6654 21.2333 30.5654 23.3333 27.9987 23.3333C25.432 23.3333 23.332 21.2333 23.332 18.6666C23.332 16.0999 25.432 13.9999 27.9987 13.9999ZM27.9987 37.3332C34.2987 37.3332 41.532 40.3432 41.9987 41.9999H13.9987C14.5354 40.3199 21.722 37.3332 27.9987 37.3332ZM27.9987 9.33325C22.842 9.33325 18.6654 13.5099 18.6654 18.6666C18.6654 23.8232 22.842 27.9999 27.9987 27.9999C33.1554 27.9999 37.332 23.8232 37.332 18.6666C37.332 13.5099 33.1554 9.33325 27.9987 9.33325ZM27.9987 32.6666C21.7687 32.6666 9.33203 35.7932 9.33203 41.9999V46.6666H46.6654V41.9999C46.6654 35.7932 34.2287 32.6666 27.9987 32.6666Z" fill="black" fill-opacity="0.6"/>
</svg>
