<svg width="32" height="32" viewBox="0 0 32 32" fill="none" xmlns="http://www.w3.org/2000/svg">
<path d="M12.0007 6.66667C11.647 6.66667 11.3079 6.80714 11.0578 7.05719C10.8078 7.30724 10.6673 7.64638 10.6673 8C10.6673 8.35362 10.8078 8.69276 11.0578 8.94281C11.3079 9.19286 11.647 9.33334 12.0007 9.33334C12.3543 9.33334 12.6934 9.19286 12.9435 8.94281C13.1935 8.69276 13.334 8.35362 13.334 8C13.334 7.64638 13.1935 7.30724 12.9435 7.05719C12.6934 6.80714 12.3543 6.66667 12.0007 6.66667ZM8.22732 6.66667C8.50279 5.88596 9.01364 5.20991 9.68945 4.73172C10.3653 4.25353 11.1728 3.99673 12.0007 3.99673C12.8285 3.99673 13.636 4.25353 14.3119 4.73172C14.9877 5.20991 15.4985 5.88596 15.774 6.66667H25.334C25.6876 6.66667 26.0267 6.80714 26.2768 7.05719C26.5268 7.30724 26.6673 7.64638 26.6673 8C26.6673 8.35362 26.5268 8.69276 26.2768 8.94281C26.0267 9.19286 25.6876 9.33334 25.334 9.33334H15.774C15.4985 10.114 14.9877 10.7901 14.3119 11.2683C13.636 11.7465 12.8285 12.0033 12.0007 12.0033C11.1728 12.0033 10.3653 11.7465 9.68945 11.2683C9.01364 10.7901 8.50279 10.114 8.22732 9.33334H6.66732C6.3137 9.33334 5.97456 9.19286 5.72451 8.94281C5.47446 8.69276 5.33398 8.35362 5.33398 8C5.33398 7.64638 5.47446 7.30724 5.72451 7.05719C5.97456 6.80714 6.3137 6.66667 6.66732 6.66667H8.22732ZM20.0007 14.6667C19.647 14.6667 19.3079 14.8071 19.0578 15.0572C18.8078 15.3072 18.6673 15.6464 18.6673 16C18.6673 16.3536 18.8078 16.6928 19.0578 16.9428C19.3079 17.1929 19.647 17.3333 20.0007 17.3333C20.3543 17.3333 20.6934 17.1929 20.9435 16.9428C21.1935 16.6928 21.334 16.3536 21.334 16C21.334 15.6464 21.1935 15.3072 20.9435 15.0572C20.6934 14.8071 20.3543 14.6667 20.0007 14.6667ZM16.2273 14.6667C16.5028 13.886 17.0136 13.2099 17.6895 12.7317C18.3653 12.2535 19.1728 11.9967 20.0007 11.9967C20.8285 11.9967 21.636 12.2535 22.3119 12.7317C22.9877 13.2099 23.4985 13.886 23.774 14.6667H25.334C25.6876 14.6667 26.0267 14.8071 26.2768 15.0572C26.5268 15.3072 26.6673 15.6464 26.6673 16C26.6673 16.3536 26.5268 16.6928 26.2768 16.9428C26.0267 17.1929 25.6876 17.3333 25.334 17.3333H23.774C23.4985 18.114 22.9877 18.7901 22.3119 19.2683C21.636 19.7465 20.8285 20.0033 20.0007 20.0033C19.1728 20.0033 18.3653 19.7465 17.6895 19.2683C17.0136 18.7901 16.5028 18.114 16.2273 17.3333H6.66732C6.3137 17.3333 5.97456 17.1929 5.72451 16.9428C5.47446 16.6928 5.33398 16.3536 5.33398 16C5.33398 15.6464 5.47446 15.3072 5.72451 15.0572C5.97456 14.8071 6.3137 14.6667 6.66732 14.6667H16.2273ZM12.0007 22.6667C11.647 22.6667 11.3079 22.8071 11.0578 23.0572C10.8078 23.3072 10.6673 23.6464 10.6673 24C10.6673 24.3536 10.8078 24.6928 11.0578 24.9428C11.3079 25.1929 11.647 25.3333 12.0007 25.3333C12.3543 25.3333 12.6934 25.1929 12.9435 24.9428C13.1935 24.6928 13.334 24.3536 13.334 24C13.334 23.6464 13.1935 23.3072 12.9435 23.0572C12.6934 22.8071 12.3543 22.6667 12.0007 22.6667ZM8.22732 22.6667C8.50279 21.886 9.01364 21.2099 9.68945 20.7317C10.3653 20.2535 11.1728 19.9967 12.0007 19.9967C12.8285 19.9967 13.636 20.2535 14.3119 20.7317C14.9877 21.2099 15.4985 21.886 15.774 22.6667H25.334C25.6876 22.6667 26.0267 22.8071 26.2768 23.0572C26.5268 23.3072 26.6673 23.6464 26.6673 24C26.6673 24.3536 26.5268 24.6928 26.2768 24.9428C26.0267 25.1929 25.6876 25.3333 25.334 25.3333H15.774C15.4985 26.114 14.9877 26.7901 14.3119 27.2683C13.636 27.7465 12.8285 28.0033 12.0007 28.0033C11.1728 28.0033 10.3653 27.7465 9.68945 27.2683C9.01364 26.7901 8.50279 26.114 8.22732 25.3333H6.66732C6.3137 25.3333 5.97456 25.1929 5.72451 24.9428C5.47446 24.6928 5.33398 24.3536 5.33398 24C5.33398 23.6464 5.47446 23.3072 5.72451 23.0572C5.97456 22.8071 6.3137 22.6667 6.66732 22.6667H8.22732Z" fill="#3D6E55"/>
</svg>
