<svg width="20" height="29" viewBox="0 0 20 29" fill="none" xmlns="http://www.w3.org/2000/svg">
<path d="M9.91667 0C4.43417 0 0 4.43417 0 9.91667C0 12.3817 0.708333 14.6908 1.9975 16.7733C3.34333 18.955 5.11417 20.825 6.47417 23.0067C7.14 24.0692 7.62167 25.0608 8.13167 26.2083C8.5 26.9875 8.7975 28.3333 9.91667 28.3333C11.0358 28.3333 11.3333 26.9875 11.6875 26.2083C12.2117 25.0608 12.6792 24.0692 13.345 23.0067C14.705 20.8392 16.4758 18.9692 17.8217 16.7733C19.125 14.6908 19.8333 12.3817 19.8333 9.91667C19.8333 4.43417 15.3992 0 9.91667 0ZM9.91667 13.8125C7.96167 13.8125 6.375 12.2258 6.375 10.2708C6.375 8.31583 7.96167 6.72917 9.91667 6.72917C11.8717 6.72917 13.4583 8.31583 13.4583 10.2708C13.4583 12.2258 11.8717 13.8125 9.91667 13.8125Z" fill="white"/>
</svg>
