<svg width="80" height="107" viewBox="0 0 80 107" fill="none" xmlns="http://www.w3.org/2000/svg">
<rect width="80" height="107" fill="#ECECEC"/>
<path fill-rule="evenodd" clip-rule="evenodd" d="M19.9983 31.034L62.051 73.4698L58.5527 77L56.5033 74.932H18.9736V37.0604L16.5 34.5643L19.9983 31.034ZM43.7106 64.9471L31.3421 52.466L23.9209 64.2981V69.9395H51.5559L45.0298 63.3538L43.7106 64.9471ZM63.5 30V67.8717L47.9385 52.1684L51.1316 48.9463L58.5526 56.435V34.9924H30.9175L25.9702 30H63.5ZM23.9209 42.0527V54.7918L28.761 46.9368L23.9209 42.0527ZM47.4211 39.985C49.4704 39.985 51.1316 41.6614 51.1316 43.7293C51.1316 45.7972 49.4704 47.4736 47.4211 47.4736C45.3719 47.4736 43.7106 45.7972 43.7106 43.7293C43.7106 41.6614 45.3719 39.985 47.4211 39.985Z" fill="black"/>
</svg>
