<svg width="34" height="35" viewBox="0 0 34 35" fill="none" xmlns="http://www.w3.org/2000/svg">
<path d="M21.9573 20.6118H20.8381L20.4414 20.2293C22.1414 18.246 23.0198 15.5402 22.5381 12.6643C21.8723 8.726 18.5856 5.581 14.6189 5.09934C8.62643 4.36267 3.5831 9.406 4.31977 15.3985C4.80143 19.3652 7.94643 22.6518 11.8848 23.3177C14.7606 23.7993 17.4664 22.921 19.4498 21.221L19.8323 21.6177V22.7368L25.8531 28.7577C26.4339 29.3385 27.3831 29.3385 27.9639 28.7577C28.5448 28.1768 28.5448 27.2277 27.9639 26.6468L21.9573 20.6118ZM13.4573 20.6118C9.92977 20.6118 7.08227 17.7643 7.08227 14.2368C7.08227 10.7093 9.92977 7.86184 13.4573 7.86184C16.9848 7.86184 19.8323 10.7093 19.8323 14.2368C19.8323 17.7643 16.9848 20.6118 13.4573 20.6118Z" fill="black"/>
</svg>
